<svg width="32" height="32" viewBox="0 0 32 32" fill="none" xmlns="http://www.w3.org/2000/svg">
<rect width="32" height="32" rx="16" fill="#EB6F25"/>
<path d="M10.743 21.21C9.735 21.21 8.87167 20.9907 8.153 20.552C7.43433 20.1087 6.88133 19.4927 6.494 18.704C6.11133 17.9153 5.92 17.0007 5.92 15.96C5.92 14.9193 6.11133 14.0047 6.494 13.216C6.88133 12.4273 7.43433 11.8137 8.153 11.375C8.87167 10.9317 9.735 10.71 10.743 10.71C11.905 10.71 12.8733 11.0017 13.648 11.585C14.4227 12.1637 14.9663 12.9453 15.279 13.93L13.578 14.399C13.382 13.741 13.0483 13.2277 12.577 12.859C12.1057 12.4857 11.4943 12.299 10.743 12.299C10.0663 12.299 9.50167 12.4507 9.049 12.754C8.601 13.0573 8.26267 13.4843 8.034 14.035C7.81 14.581 7.69567 15.2227 7.691 15.96C7.691 16.6973 7.803 17.3413 8.027 17.892C8.25567 18.438 8.59633 18.8627 9.049 19.166C9.50167 19.4693 10.0663 19.621 10.743 19.621C11.4943 19.621 12.1057 19.4343 12.577 19.061C13.0483 18.6877 13.382 18.1743 13.578 17.521L15.279 17.99C14.9663 18.9747 14.4227 19.7587 13.648 20.342C12.8733 20.9207 11.905 21.21 10.743 21.21ZM24.7049 21.21L21.8279 18.347L22.8849 17.29L25.7479 20.153L24.7049 21.21ZM21.0789 21.21C20.0709 21.21 19.2076 20.9907 18.4889 20.552C17.7703 20.1087 17.2173 19.4927 16.8299 18.704C16.4473 17.9153 16.2559 17.0007 16.2559 15.96C16.2559 14.9193 16.4473 14.0047 16.8299 13.216C17.2173 12.4273 17.7703 11.8137 18.4889 11.375C19.2076 10.9317 20.0709 10.71 21.0789 10.71C22.0869 10.71 22.9503 10.9317 23.6689 11.375C24.3923 11.8137 24.9453 12.4273 25.3279 13.216C25.7153 14.0047 25.9089 14.9193 25.9089 15.96C25.9089 17.0007 25.7153 17.9153 25.3279 18.704C24.9453 19.4927 24.3923 20.1087 23.6689 20.552C22.9503 20.9907 22.0869 21.21 21.0789 21.21ZM21.0789 19.621C21.7556 19.6257 22.3179 19.4763 22.7659 19.173C23.2186 18.8697 23.5569 18.4427 23.7809 17.892C24.0096 17.3413 24.1239 16.6973 24.1239 15.96C24.1239 15.2227 24.0096 14.5833 23.7809 14.042C23.5569 13.496 23.2186 13.0713 22.7659 12.768C22.3179 12.4647 21.7556 12.3083 21.0789 12.299C20.4023 12.2943 19.8399 12.4437 19.3919 12.747C18.9439 13.0503 18.6056 13.4773 18.3769 14.028C18.1529 14.5787 18.0409 15.2227 18.0409 15.96C18.0409 16.6973 18.1529 17.339 18.3769 17.885C18.6009 18.4263 18.9369 18.8487 19.3849 19.152C19.8376 19.4553 20.4023 19.6117 21.0789 19.621Z" fill="white"/>
</svg>
