<svg width="118" height="36" viewBox="0 0 118 36" fill="none" xmlns="http://www.w3.org/2000/svg">
<path d="M47.0215 16.9688C47.0215 22.2627 50.6597 25.2037 54.161 25.2037C56.6927 25.2037 59.2929 23.8187 60.7831 20.9837C60.8516 20.8092 61.0606 20.7409 61.1977 20.8469L64.3871 22.8885C64.4899 22.9569 64.5618 23.1313 64.4899 23.2339C62.3762 27.5599 58.3542 29.6015 54.3322 29.6015C48.337 29.6015 42.3041 25.1387 42.3041 16.9723C42.3041 8.80583 48.337 4.34302 54.3322 4.34302C58.3542 4.34302 62.3727 6.38462 64.4899 10.7106C64.5584 10.8132 64.4899 10.9876 64.3871 11.056L61.1977 13.0976C61.0606 13.2002 60.8516 13.1318 60.7831 12.9609C59.2929 10.1224 56.6927 8.74085 54.161 8.74085C50.6289 8.73401 47.0215 11.7092 47.0215 16.9688Z" fill="#3A3A3A"/>
<path d="M66.3296 23.7162C66.3296 29.01 70.9065 30.9148 74.8565 28.3876L77.282 26.8316C77.5253 26.6572 77.7343 26.7974 77.7343 27.0402V28.8048C77.7343 28.9416 77.8713 29.0818 78.0118 29.0818H81.9618C82.0988 29.0818 82.2393 28.945 82.2393 28.8048V12.0581C82.2393 11.9213 82.1022 11.7811 81.9618 11.7811H78.0118C77.8747 11.7811 77.7343 11.9179 77.7343 12.0581V21.401C77.7343 24.3762 75.8637 25.7954 74.0583 25.7954C72.3933 25.7954 70.8346 24.9302 70.8346 22.3004V12.0581C70.8346 11.9213 70.6976 11.7811 70.5571 11.7811H66.6071C66.47 11.7811 66.3296 11.9179 66.3296 12.0581V23.7162Z" fill="#3A3A3A"/>
<path d="M85.6377 29.0818H89.5911C89.7282 29.0818 89.8686 28.945 89.8686 28.8048V5.1365C89.8686 4.99971 89.7316 4.8595 89.5911 4.8595H85.6377C85.5007 4.8595 85.3602 4.99971 85.3602 5.1365V28.8048C85.3602 28.9416 85.5007 29.0818 85.6377 29.0818Z" fill="#3A3A3A"/>
<path d="M105.535 14.3049V12.0547C105.535 11.9179 105.672 11.7777 105.812 11.7777H109.766C109.903 11.7777 110.043 11.9145 110.043 12.0547V35.7229C110.043 35.8597 109.906 36 109.766 36H105.812C105.675 36 105.535 35.8632 105.535 35.7229V27.1427C105.535 26.8657 105.223 26.7631 105.014 26.9683C103.593 28.6303 101.616 29.4613 99.92 29.4613C96.107 29.4613 92.2941 26.4519 92.2941 20.4981C92.2941 15.2385 95.8295 11.3981 99.4678 11.3981C100.335 11.3981 101.445 11.6751 102.483 12.5061L105.083 14.5135C105.292 14.6503 105.535 14.5477 105.535 14.3049ZM96.9738 20.4639C96.9738 23.1621 98.8785 25.3781 101.376 25.3781C103.387 25.3781 105.535 23.2339 105.535 20.2929C105.535 17.0065 103.281 15.3103 101.41 15.3103C99.1903 15.3103 96.9738 16.9689 96.9738 20.4639Z" fill="#3A3A3A"/>
<path d="M115.103 9.59928C116.662 9.59928 117.875 8.42288 117.875 6.76086C117.875 5.17067 116.662 3.99426 115.103 3.99426C113.473 3.99426 112.226 5.17067 112.226 6.76086C112.226 8.35106 113.473 9.59928 115.103 9.59928ZM113.092 29.0818H117.046C117.183 29.0818 117.323 28.945 117.323 28.8048V12.0581C117.323 11.9213 117.186 11.7811 117.046 11.7811H113.092C112.955 11.7811 112.815 11.9179 112.815 12.0581V28.8048C112.815 28.9415 112.952 29.0818 113.092 29.0818Z" fill="#3A3A3A"/>
<path d="M28.7035 25.5115L18.4465 15.2761L15.2365 18.2684L25.5962 28.6133L32.0882 35.0937L35.1955 31.992L28.7035 25.5115Z" fill="#763383"/>
<path d="M33.1125 12.5027C31.1906 5.13993 24.5171 0 16.8877 0C11.5057 0 6.41487 2.60929 3.26993 6.97635C1.211 9.83186 0.125 13.2072 0.125 16.733C0.125 20.9393 1.67691 24.9131 4.49981 28.0011C2.97188 26.281 2.11885 24.1368 2.11885 21.8113C2.11885 19.3628 3.0541 17.1297 4.58889 15.4506C4.80814 13.3166 5.56868 11.2887 6.83282 9.53434C9.15555 6.30949 12.9137 4.38416 16.8877 4.38416C22.5198 4.38416 27.4428 8.17669 28.8611 13.6107C29.1248 14.623 29.2585 15.6763 29.2585 16.7364C29.2585 19.373 28.4397 21.8866 26.8878 24.0103L27.0145 23.8324L30.1526 26.9649C32.2561 24.0889 33.6504 20.3101 33.6504 16.7364C33.6504 15.3001 33.4688 13.8775 33.1125 12.5027Z" fill="#EB6F25"/>
<path d="M4.94169 28.473C4.79095 28.3191 4.64364 28.1618 4.49976 28.0011C4.64364 28.1618 4.78753 28.3191 4.94169 28.473Z" fill="#00A19B"/>
<path d="M27.0146 23.8291L26.8878 24.0069C26.117 25.0602 25.1886 25.9835 24.13 26.7496C22.0128 28.2782 19.5085 29.0853 16.8878 29.0853C13.5475 29.0853 10.4163 27.7755 8.0696 25.3987C7.10009 24.4378 6.51084 23.1759 6.51084 21.8148C6.51084 19.014 8.79246 16.7364 11.5982 16.7364C13.0097 16.7364 14.3252 17.3007 15.2947 18.3266L18.4842 15.3138C16.7028 13.4329 14.1916 12.3523 11.5982 12.3523C8.82329 12.3523 6.32242 13.5492 4.58894 15.454C3.05758 17.1366 2.1189 19.3697 2.1189 21.8148C2.1189 24.1403 2.97193 26.2845 4.49986 28.0046C4.64375 28.1619 4.79106 28.3227 4.9418 28.4765C8.11757 31.698 12.3622 33.4694 16.8878 33.4694C20.4404 33.4694 23.8354 32.3751 26.7028 30.3027C28.0252 29.3452 29.1592 28.2577 30.1527 26.965L27.0146 23.8291Z" fill="#00A19B"/>
</svg>
